{
	"asset":{
		"generator":"Khronos glTF Blender I/O v4.2.70",
		"version":"2.0"
	},
	"scene":0,
	"scenes":[
		{
			"name":"Scene",
			"nodes":[
				0,
				1,
				2,
				3,
				4,
				5,
				6,
				7,
				8,
				9,
				10,
				11,
				12,
				13
			]
		}
	],
	"nodes":[
		{
			"mesh":0,
			"name":"model_0",
			"rotation":[
				0.7071068286895752,
				0,
				0,
				0.7071068286895752
			],
			"scale":[
				0.4797002673149109,
				0.4797002673149109,
				0.4797002673149109
			],
			"translation":[
				0.14139129221439362,
				0.20478519797325134,
				-0.03487582877278328
			]
		},
		{
			"mesh":1,
			"name":"model_1",
			"rotation":[
				0.7071068286895752,
				0,
				0,
				0.7071068286895752
			],
			"scale":[
				0.4797002673149109,
				0.4797002673149109,
				0.4797002673149109
			],
			"translation":[
				0.14139129221439362,
				0.20478519797325134,
				-0.03487582877278328
			]
		},
		{
			"mesh":2,
			"name":"model_2",
			"rotation":[
				0.7071068286895752,
				0,
				0,
				0.7071068286895752
			],
			"scale":[
				0.4797002673149109,
				0.4797002673149109,
				0.4797002673149109
			],
			"translation":[
				0.14139129221439362,
				0.20478519797325134,
				-0.03487582877278328
			]
		},
		{
			"mesh":3,
			"name":"model_3",
			"rotation":[
				0.7071068286895752,
				0,
				0,
				0.7071068286895752
			],
			"scale":[
				0.4797002673149109,
				0.4797002673149109,
				0.4797002673149109
			],
			"translation":[
				0.14139129221439362,
				0.20478519797325134,
				-0.03487582877278328
			]
		},
		{
			"mesh":4,
			"name":"model_4",
			"rotation":[
				0.7071068286895752,
				0,
				0,
				0.7071068286895752
			],
			"scale":[
				0.4797002673149109,
				0.4797002673149109,
				0.4797002673149109
			],
			"translation":[
				0.14139129221439362,
				0.20478519797325134,
				-0.03487582877278328
			]
		},
		{
			"mesh":5,
			"name":"model_5",
			"rotation":[
				0.7071068286895752,
				0,
				0,
				0.7071068286895752
			],
			"scale":[
				0.4797002673149109,
				0.4797002673149109,
				0.4797002673149109
			],
			"translation":[
				0.14139129221439362,
				0.20478519797325134,
				-0.03487582877278328
			]
		},
		{
			"mesh":6,
			"name":"model_6",
			"rotation":[
				0.7071068286895752,
				0,
				0,
				0.7071068286895752
			],
			"scale":[
				0.4797002673149109,
				0.4797002673149109,
				0.4797002673149109
			],
			"translation":[
				0.14139129221439362,
				0.20478519797325134,
				-0.03487582877278328
			]
		},
		{
			"mesh":7,
			"name":"model_7",
			"rotation":[
				0.7071068286895752,
				0,
				0,
				0.7071068286895752
			],
			"scale":[
				0.4797002673149109,
				0.4797002673149109,
				0.4797002673149109
			],
			"translation":[
				0.14139129221439362,
				0.20478519797325134,
				-0.03487582877278328
			]
		},
		{
			"mesh":8,
			"name":"model_8",
			"rotation":[
				0.7071068286895752,
				0,
				0,
				0.7071068286895752
			],
			"scale":[
				0.4797002673149109,
				0.4797002673149109,
				0.4797002673149109
			],
			"translation":[
				0.14139129221439362,
				0.20478519797325134,
				-0.03487582877278328
			]
		},
		{
			"mesh":9,
			"name":"model_9",
			"rotation":[
				0.7071068286895752,
				0,
				0,
				0.7071068286895752
			],
			"scale":[
				0.4797002673149109,
				0.4797002673149109,
				0.4797002673149109
			],
			"translation":[
				0.14139129221439362,
				0.20478519797325134,
				-0.03487582877278328
			]
		},
		{
			"mesh":10,
			"name":"model_10",
			"rotation":[
				0.7071068286895752,
				0,
				0,
				0.7071068286895752
			],
			"scale":[
				0.4797002673149109,
				0.4797002673149109,
				0.4797002673149109
			],
			"translation":[
				0.14139129221439362,
				0.20478519797325134,
				-0.03487582877278328
			]
		},
		{
			"mesh":11,
			"name":"model_11",
			"rotation":[
				0.7071068286895752,
				0,
				0,
				0.7071068286895752
			],
			"scale":[
				0.4797002673149109,
				0.4797002673149109,
				0.4797002673149109
			],
			"translation":[
				0.14139129221439362,
				0.20478519797325134,
				-0.03487582877278328
			]
		},
		{
			"mesh":12,
			"name":"model_12",
			"rotation":[
				0.7071068286895752,
				0,
				0,
				0.7071068286895752
			],
			"scale":[
				0.4797002673149109,
				0.4797002673149109,
				0.4797002673149109
			],
			"translation":[
				0.14139129221439362,
				0.20478519797325134,
				-0.03487582877278328
			]
		},
		{
			"mesh":13,
			"name":"model_13",
			"rotation":[
				0.7071068286895752,
				0,
				0,
				0.7071068286895752
			],
			"scale":[
				0.4797002673149109,
				0.4797002673149109,
				0.4797002673149109
			],
			"translation":[
				0.14139129221439362,
				0.20478519797325134,
				-0.03487582877278328
			]
		}
	],
	"materials":[
		{
			"doubleSided":true,
			"name":"Material.005",
			"pbrMetallicRoughness":{
				"metallicFactor":0,
				"roughnessFactor":0.5
			}
		},
		{
			"doubleSided":true,
			"name":"Material.001",
			"pbrMetallicRoughness":{
				"baseColorTexture":{
					"index":0
				},
				"metallicFactor":0,
				"roughnessFactor":0.5
			}
		},
		{
			"doubleSided":true,
			"name":"Material.003",
			"pbrMetallicRoughness":{
				"baseColorTexture":{
					"index":1
				},
				"metallicFactor":0,
				"roughnessFactor":0.5
			}
		},
		{
			"doubleSided":true,
			"name":"Material.004",
			"pbrMetallicRoughness":{
				"baseColorTexture":{
					"index":2
				},
				"metallicFactor":0,
				"roughnessFactor":0.5
			}
		},
		{
			"doubleSided":true,
			"name":"Material.006",
			"pbrMetallicRoughness":{
				"metallicFactor":0,
				"roughnessFactor":0.5
			}
		},
		{
			"doubleSided":true,
			"name":"Material.002",
			"pbrMetallicRoughness":{
				"baseColorTexture":{
					"index":3
				},
				"metallicFactor":0,
				"roughnessFactor":0.5
			}
		},
		{
			"doubleSided":true,
			"name":"Material.007",
			"pbrMetallicRoughness":{
				"baseColorTexture":{
					"index":4
				},
				"metallicFactor":0,
				"roughnessFactor":0.5
			}
		},
		{
			"doubleSided":true,
			"name":"Material.008",
			"pbrMetallicRoughness":{
				"metallicFactor":0,
				"roughnessFactor":0.5
			}
		}
	],
	"meshes":[
		{
			"name":"model_0",
			"primitives":[
				{
					"attributes":{
						"POSITION":0,
						"NORMAL":1,
						"TEXCOORD_0":2
					},
					"indices":3,
					"material":0
				}
			]
		},
		{
			"name":"model_1",
			"primitives":[
				{
					"attributes":{
						"POSITION":4,
						"NORMAL":5,
						"TEXCOORD_0":6
					},
					"indices":7,
					"material":1
				}
			]
		},
		{
			"name":"model_2",
			"primitives":[
				{
					"attributes":{
						"POSITION":8,
						"NORMAL":9
					},
					"indices":10
				}
			]
		},
		{
			"name":"model_3",
			"primitives":[
				{
					"attributes":{
						"POSITION":11,
						"NORMAL":12,
						"TEXCOORD_0":13
					},
					"indices":14,
					"material":2
				}
			]
		},
		{
			"name":"model_4",
			"primitives":[
				{
					"attributes":{
						"POSITION":15,
						"NORMAL":16,
						"TEXCOORD_0":17
					},
					"indices":18,
					"material":3
				}
			]
		},
		{
			"name":"model_5",
			"primitives":[
				{
					"attributes":{
						"POSITION":19,
						"NORMAL":20,
						"TEXCOORD_0":21
					},
					"indices":22,
					"material":4
				}
			]
		},
		{
			"name":"model_6",
			"primitives":[
				{
					"attributes":{
						"POSITION":23,
						"NORMAL":24,
						"TEXCOORD_0":25
					},
					"indices":26,
					"material":5
				}
			]
		},
		{
			"name":"model_7",
			"primitives":[
				{
					"attributes":{
						"POSITION":27,
						"NORMAL":28
					},
					"indices":29
				}
			]
		},
		{
			"name":"model_8",
			"primitives":[
				{
					"attributes":{
						"POSITION":30,
						"NORMAL":31,
						"TEXCOORD_0":32
					},
					"indices":33,
					"material":6
				}
			]
		},
		{
			"name":"model_9",
			"primitives":[
				{
					"attributes":{
						"POSITION":34,
						"NORMAL":35
					},
					"indices":36
				}
			]
		},
		{
			"name":"model_10",
			"primitives":[
				{
					"attributes":{
						"POSITION":37,
						"NORMAL":38
					},
					"indices":39
				}
			]
		},
		{
			"name":"model_11",
			"primitives":[
				{
					"attributes":{
						"POSITION":40,
						"NORMAL":41
					},
					"indices":42
				}
			]
		},
		{
			"name":"model_12",
			"primitives":[
				{
					"attributes":{
						"POSITION":43,
						"NORMAL":44
					},
					"indices":45
				}
			]
		},
		{
			"name":"model_13",
			"primitives":[
				{
					"attributes":{
						"POSITION":46,
						"NORMAL":47,
						"TEXCOORD_0":48
					},
					"indices":49,
					"material":7
				}
			]
		}
	],
	"textures":[
		{
			"sampler":0,
			"source":0
		},
		{
			"sampler":0,
			"source":1
		},
		{
			"sampler":0,
			"source":2
		},
		{
			"sampler":0,
			"source":3
		},
		{
			"sampler":0,
			"source":4
		}
	],
	"images":[
		{
			"mimeType":"image/png",
			"name":"abc (8)",
			"uri":"abc%208.png"
		},
		{
			"mimeType":"image/png",
			"name":"abc (7)",
			"uri":"abc%207.png"
		},
		{
			"mimeType":"image/png",
			"name":"abc (1)",
			"uri":"abc%201.png"
		},
		{
			"mimeType":"image/png",
			"name":"abc (18)",
			"uri":"abc%2018.png"
		},
		{
			"mimeType":"image/png",
			"name":"abc (6)",
			"uri":"abc%206.png"
		}
	],
	"accessors":[
		{
			"bufferView":0,
			"componentType":5126,
			"count":59103,
			"max":[
				0.4527275562286377,
				1.5945358276367188,
				0.5087080001831055
			],
			"min":[
				-0.46013322472572327,
				-1.3980000019073486,
				-0.9101203083992004
			],
			"type":"VEC3"
		},
		{
			"bufferView":1,
			"componentType":5126,
			"count":59103,
			"type":"VEC3"
		},
		{
			"bufferView":2,
			"componentType":5126,
			"count":59103,
			"type":"VEC2"
		},
		{
			"bufferView":3,
			"componentType":5123,
			"count":143637,
			"type":"SCALAR"
		},
		{
			"bufferView":4,
			"componentType":5126,
			"count":68737,
			"max":[
				1.773252010345459,
				5.275298118591309,
				1.0170700550079346
			],
			"min":[
				-1.7775170803070068,
				-4.209491729736328,
				-0.5776689648628235
			],
			"type":"VEC3"
		},
		{
			"bufferView":5,
			"componentType":5126,
			"count":68737,
			"type":"VEC3"
		},
		{
			"bufferView":6,
			"componentType":5126,
			"count":68737,
			"type":"VEC2"
		},
		{
			"bufferView":7,
			"componentType":5125,
			"count":189048,
			"type":"SCALAR"
		},
		{
			"bufferView":8,
			"componentType":5126,
			"count":2538,
			"max":[
				1.5104093551635742,
				4.84503698348999,
				0.854570746421814
			],
			"min":[
				-1.5157729387283325,
				-4.349027156829834,
				0.4306700825691223
			],
			"type":"VEC3"
		},
		{
			"bufferView":9,
			"componentType":5126,
			"count":2538,
			"type":"VEC3"
		},
		{
			"bufferView":10,
			"componentType":5123,
			"count":4044,
			"type":"SCALAR"
		},
		{
			"bufferView":11,
			"componentType":5126,
			"count":72647,
			"max":[
				1.8127467632293701,
				3.429172992706299,
				1.159999966621399
			],
			"min":[
				-1.8164615631103516,
				-3.6626200675964355,
				-0.11504258960485458
			],
			"type":"VEC3"
		},
		{
			"bufferView":12,
			"componentType":5126,
			"count":72647,
			"type":"VEC3"
		},
		{
			"bufferView":13,
			"componentType":5126,
			"count":72647,
			"type":"VEC2"
		},
		{
			"bufferView":14,
			"componentType":5125,
			"count":141960,
			"type":"SCALAR"
		},
		{
			"bufferView":15,
			"componentType":5126,
			"count":54741,
			"max":[
				1.5960789918899536,
				3.394021987915039,
				1.0383480787277222
			],
			"min":[
				-1.599793791770935,
				0.9692710041999817,
				-0.2409668117761612
			],
			"type":"VEC3"
		},
		{
			"bufferView":16,
			"componentType":5126,
			"count":54741,
			"type":"VEC3"
		},
		{
			"bufferView":17,
			"componentType":5126,
			"count":54741,
			"type":"VEC2"
		},
		{
			"bufferView":18,
			"componentType":5123,
			"count":125832,
			"type":"SCALAR"
		},
		{
			"bufferView":19,
			"componentType":5126,
			"count":25670,
			"max":[
				1.5470765829086304,
				-1.784637212753296,
				0.9605349898338318
			],
			"min":[
				-1.5544129610061646,
				-4.344890117645264,
				-0.5209195613861084
			],
			"type":"VEC3"
		},
		{
			"bufferView":20,
			"componentType":5126,
			"count":25670,
			"type":"VEC3"
		},
		{
			"bufferView":21,
			"componentType":5126,
			"count":25670,
			"type":"VEC2"
		},
		{
			"bufferView":22,
			"componentType":5123,
			"count":56922,
			"type":"SCALAR"
		},
		{
			"bufferView":23,
			"componentType":5126,
			"count":35509,
			"max":[
				1.1287554502487183,
				4.9715657234191895,
				0.9320690035820007
			],
			"min":[
				-1.128749966621399,
				-2.601300001144409,
				-0.6375587582588196
			],
			"type":"VEC3"
		},
		{
			"bufferView":24,
			"componentType":5126,
			"count":35509,
			"type":"VEC3"
		},
		{
			"bufferView":25,
			"componentType":5126,
			"count":35509,
			"type":"VEC2"
		},
		{
			"bufferView":26,
			"componentType":5123,
			"count":92868,
			"type":"SCALAR"
		},
		{
			"bufferView":27,
			"componentType":5126,
			"count":3690,
			"max":[
				0.997465193271637,
				2.8852884769439697,
				0.9193592667579651
			],
			"min":[
				-0.34148210287094116,
				-2.601180076599121,
				-0.5219797492027283
			],
			"type":"VEC3"
		},
		{
			"bufferView":28,
			"componentType":5126,
			"count":3690,
			"type":"VEC3"
		},
		{
			"bufferView":29,
			"componentType":5123,
			"count":7620,
			"type":"SCALAR"
		},
		{
			"bufferView":30,
			"componentType":5126,
			"count":32256,
			"max":[
				0.21862390637397766,
				1.4751229286193848,
				0.11775929480791092
			],
			"min":[
				-0.20727500319480896,
				1.381971001625061,
				-0.12358849495649338
			],
			"type":"VEC3"
		},
		{
			"bufferView":31,
			"componentType":5126,
			"count":32256,
			"type":"VEC3"
		},
		{
			"bufferView":32,
			"componentType":5126,
			"count":32256,
			"type":"VEC2"
		},
		{
			"bufferView":33,
			"componentType":5123,
			"count":60738,
			"type":"SCALAR"
		},
		{
			"bufferView":34,
			"componentType":5126,
			"count":637,
			"max":[
				0.1360519528388977,
				1.5880721807479858,
				0.09150940924882889
			],
			"min":[
				-0.13637100160121918,
				1.518968105316162,
				-0.018509795889258385
			],
			"type":"VEC3"
		},
		{
			"bufferView":35,
			"componentType":5126,
			"count":637,
			"type":"VEC3"
		},
		{
			"bufferView":36,
			"componentType":5123,
			"count":1602,
			"type":"SCALAR"
		},
		{
			"bufferView":37,
			"componentType":5126,
			"count":78,
			"max":[
				1.3881332874298096,
				1.1124275922775269,
				-0.1455630213022232
			],
			"min":[
				-1.3841063976287842,
				1.065850019454956,
				-0.23601748049259186
			],
			"type":"VEC3"
		},
		{
			"bufferView":38,
			"componentType":5126,
			"count":78,
			"type":"VEC3"
		},
		{
			"bufferView":39,
			"componentType":5123,
			"count":144,
			"type":"SCALAR"
		},
		{
			"bufferView":40,
			"componentType":5126,
			"count":1712,
			"max":[
				1.390783667564392,
				1.1833419799804688,
				-0.11866018921136856
			],
			"min":[
				-1.390783667564392,
				1.0378961563110352,
				-0.26249441504478455
			],
			"type":"VEC3"
		},
		{
			"bufferView":41,
			"componentType":5126,
			"count":1712,
			"type":"VEC3"
		},
		{
			"bufferView":42,
			"componentType":5123,
			"count":3552,
			"type":"SCALAR"
		},
		{
			"bufferView":43,
			"componentType":5126,
			"count":695,
			"max":[
				1.0222125053405762,
				-4.188641548156738,
				0.6047077775001526
			],
			"min":[
				-1.0306445360183716,
				-4.352352619171143,
				-0.26677772402763367
			],
			"type":"VEC3"
		},
		{
			"bufferView":44,
			"componentType":5126,
			"count":695,
			"type":"VEC3"
		},
		{
			"bufferView":45,
			"componentType":5123,
			"count":1056,
			"type":"SCALAR"
		},
		{
			"bufferView":46,
			"componentType":5126,
			"count":1261,
			"max":[
				0.7398046851158142,
				2.5065910816192627,
				0.927908718585968
			],
			"min":[
				-0.7402055859565735,
				-3.9213128089904785,
				-0.44629693031311035
			],
			"type":"VEC3"
		},
		{
			"bufferView":47,
			"componentType":5126,
			"count":1261,
			"type":"VEC3"
		},
		{
			"bufferView":48,
			"componentType":5126,
			"count":1261,
			"type":"VEC2"
		},
		{
			"bufferView":49,
			"componentType":5123,
			"count":2772,
			"type":"SCALAR"
		}
	],
	"bufferViews":[
		{
			"buffer":0,
			"byteLength":709236,
			"byteOffset":0,
			"target":34962
		},
		{
			"buffer":0,
			"byteLength":709236,
			"byteOffset":709236,
			"target":34962
		},
		{
			"buffer":0,
			"byteLength":472824,
			"byteOffset":1418472,
			"target":34962
		},
		{
			"buffer":0,
			"byteLength":287274,
			"byteOffset":1891296,
			"target":34963
		},
		{
			"buffer":0,
			"byteLength":824844,
			"byteOffset":2178572,
			"target":34962
		},
		{
			"buffer":0,
			"byteLength":824844,
			"byteOffset":3003416,
			"target":34962
		},
		{
			"buffer":0,
			"byteLength":549896,
			"byteOffset":3828260,
			"target":34962
		},
		{
			"buffer":0,
			"byteLength":756192,
			"byteOffset":4378156,
			"target":34963
		},
		{
			"buffer":0,
			"byteLength":30456,
			"byteOffset":5134348,
			"target":34962
		},
		{
			"buffer":0,
			"byteLength":30456,
			"byteOffset":5164804,
			"target":34962
		},
		{
			"buffer":0,
			"byteLength":8088,
			"byteOffset":5195260,
			"target":34963
		},
		{
			"buffer":0,
			"byteLength":871764,
			"byteOffset":5203348,
			"target":34962
		},
		{
			"buffer":0,
			"byteLength":871764,
			"byteOffset":6075112,
			"target":34962
		},
		{
			"buffer":0,
			"byteLength":581176,
			"byteOffset":6946876,
			"target":34962
		},
		{
			"buffer":0,
			"byteLength":567840,
			"byteOffset":7528052,
			"target":34963
		},
		{
			"buffer":0,
			"byteLength":656892,
			"byteOffset":8095892,
			"target":34962
		},
		{
			"buffer":0,
			"byteLength":656892,
			"byteOffset":8752784,
			"target":34962
		},
		{
			"buffer":0,
			"byteLength":437928,
			"byteOffset":9409676,
			"target":34962
		},
		{
			"buffer":0,
			"byteLength":251664,
			"byteOffset":9847604,
			"target":34963
		},
		{
			"buffer":0,
			"byteLength":308040,
			"byteOffset":10099268,
			"target":34962
		},
		{
			"buffer":0,
			"byteLength":308040,
			"byteOffset":10407308,
			"target":34962
		},
		{
			"buffer":0,
			"byteLength":205360,
			"byteOffset":10715348,
			"target":34962
		},
		{
			"buffer":0,
			"byteLength":113844,
			"byteOffset":10920708,
			"target":34963
		},
		{
			"buffer":0,
			"byteLength":426108,
			"byteOffset":11034552,
			"target":34962
		},
		{
			"buffer":0,
			"byteLength":426108,
			"byteOffset":11460660,
			"target":34962
		},
		{
			"buffer":0,
			"byteLength":284072,
			"byteOffset":11886768,
			"target":34962
		},
		{
			"buffer":0,
			"byteLength":185736,
			"byteOffset":12170840,
			"target":34963
		},
		{
			"buffer":0,
			"byteLength":44280,
			"byteOffset":12356576,
			"target":34962
		},
		{
			"buffer":0,
			"byteLength":44280,
			"byteOffset":12400856,
			"target":34962
		},
		{
			"buffer":0,
			"byteLength":15240,
			"byteOffset":12445136,
			"target":34963
		},
		{
			"buffer":0,
			"byteLength":387072,
			"byteOffset":12460376,
			"target":34962
		},
		{
			"buffer":0,
			"byteLength":387072,
			"byteOffset":12847448,
			"target":34962
		},
		{
			"buffer":0,
			"byteLength":258048,
			"byteOffset":13234520,
			"target":34962
		},
		{
			"buffer":0,
			"byteLength":121476,
			"byteOffset":13492568,
			"target":34963
		},
		{
			"buffer":0,
			"byteLength":7644,
			"byteOffset":13614044,
			"target":34962
		},
		{
			"buffer":0,
			"byteLength":7644,
			"byteOffset":13621688,
			"target":34962
		},
		{
			"buffer":0,
			"byteLength":3204,
			"byteOffset":13629332,
			"target":34963
		},
		{
			"buffer":0,
			"byteLength":936,
			"byteOffset":13632536,
			"target":34962
		},
		{
			"buffer":0,
			"byteLength":936,
			"byteOffset":13633472,
			"target":34962
		},
		{
			"buffer":0,
			"byteLength":288,
			"byteOffset":13634408,
			"target":34963
		},
		{
			"buffer":0,
			"byteLength":20544,
			"byteOffset":13634696,
			"target":34962
		},
		{
			"buffer":0,
			"byteLength":20544,
			"byteOffset":13655240,
			"target":34962
		},
		{
			"buffer":0,
			"byteLength":7104,
			"byteOffset":13675784,
			"target":34963
		},
		{
			"buffer":0,
			"byteLength":8340,
			"byteOffset":13682888,
			"target":34962
		},
		{
			"buffer":0,
			"byteLength":8340,
			"byteOffset":13691228,
			"target":34962
		},
		{
			"buffer":0,
			"byteLength":2112,
			"byteOffset":13699568,
			"target":34963
		},
		{
			"buffer":0,
			"byteLength":15132,
			"byteOffset":13701680,
			"target":34962
		},
		{
			"buffer":0,
			"byteLength":15132,
			"byteOffset":13716812,
			"target":34962
		},
		{
			"buffer":0,
			"byteLength":10088,
			"byteOffset":13731944,
			"target":34962
		},
		{
			"buffer":0,
			"byteLength":5544,
			"byteOffset":13742032,
			"target":34963
		}
	],
	"samplers":[
		{
			"magFilter":9729,
			"minFilter":9987
		}
	],
	"buffers":[
		{
			"byteLength":13747576,
			"uri":"amr24.bin"
		}
	]
}
